<mxfile host="app.diagrams.net" modified="2022-12-04T10:18:15.561Z" agent="5.0 (Windows NT 10.0; Win64; x64) AppleWebKit/537.36 (KHTML, like Gecko) Chrome/108.0.0.0 Safari/537.36" etag="_fUCuH_3eGekOIQ87RVk" version="20.6.0" type="github">
  <diagram name="Page-1" id="2a216829-ef6e-dabb-86c1-c78162f3ba2b">
    <mxGraphModel dx="1422" dy="762" grid="1" gridSize="10" guides="1" tooltips="1" connect="1" arrows="1" fold="1" page="1" pageScale="1" pageWidth="850" pageHeight="1100" background="none" math="0" shadow="0">
      <root>
        <mxCell id="0" />
        <mxCell id="1" parent="0" />
        <mxCell id="F8R7WLM5kxrZGCUdwMtY-9" value="&lt;span style=&quot;color: rgb(0, 0, 0); font-family: Helvetica; font-size: 13px; font-style: normal; font-variant-ligatures: normal; font-variant-caps: normal; letter-spacing: normal; orphans: 2; text-align: center; text-indent: 0px; text-transform: none; widows: 2; word-spacing: 0px; -webkit-text-stroke-width: 0px; background-color: rgb(255, 255, 255); text-decoration-thickness: initial; text-decoration-style: initial; text-decoration-color: initial; float: none; display: inline !important;&quot;&gt;Архитектура управленческого учета (НФ)&lt;/span&gt;" style="text;whiteSpace=wrap;html=1;fontStyle=1;fontSize=13;" vertex="1" parent="1">
          <mxGeometry x="280" width="310" height="40" as="geometry" />
        </mxCell>
        <mxCell id="F8R7WLM5kxrZGCUdwMtY-11" value="" style="rounded=0;whiteSpace=wrap;html=1;labelBackgroundColor=default;dashed=1;strokeWidth=3;" vertex="1" parent="1">
          <mxGeometry x="80" y="40" width="680" height="320" as="geometry" />
        </mxCell>
        <mxCell id="F8R7WLM5kxrZGCUdwMtY-12" value="&lt;span style=&quot;color: rgb(0, 0, 0); font-family: Helvetica; font-size: 13px; font-style: normal; font-variant-ligatures: normal; font-variant-caps: normal; letter-spacing: normal; orphans: 2; text-indent: 0px; text-transform: none; widows: 2; word-spacing: 0px; -webkit-text-stroke-width: 0px; background-color: rgb(255, 255, 255); text-decoration-thickness: initial; text-decoration-style: initial; text-decoration-color: initial; float: none; display: inline !important;&quot;&gt;Финансовое &lt;b style=&quot;font-size: 13px;&quot;&gt;ПЛАНИРОВАНИЕ&lt;/b&gt;&lt;/span&gt;" style="text;whiteSpace=wrap;html=1;fontStyle=0;align=center;fontSize=13;" vertex="1" parent="1">
          <mxGeometry x="280" y="50" width="260" height="40" as="geometry" />
        </mxCell>
        <mxCell id="F8R7WLM5kxrZGCUdwMtY-13" value="" style="rounded=0;whiteSpace=wrap;html=1;dashed=1;labelBackgroundColor=default;strokeWidth=2;" vertex="1" parent="1">
          <mxGeometry x="80" y="400" width="680" height="440" as="geometry" />
        </mxCell>
        <mxCell id="F8R7WLM5kxrZGCUdwMtY-14" value="Бюджет движения денег" style="rounded=0;whiteSpace=wrap;html=1;labelBackgroundColor=default;strokeWidth=1;fontSize=13;fontStyle=1" vertex="1" parent="1">
          <mxGeometry x="110" y="90" width="200" height="60" as="geometry" />
        </mxCell>
        <mxCell id="F8R7WLM5kxrZGCUdwMtY-15" value="Бюджет доходов и расходов" style="rounded=0;whiteSpace=wrap;html=1;labelBackgroundColor=default;strokeWidth=1;fontSize=13;fontStyle=1" vertex="1" parent="1">
          <mxGeometry x="330" y="90" width="200" height="60" as="geometry" />
        </mxCell>
        <mxCell id="F8R7WLM5kxrZGCUdwMtY-16" value="Прогнозный баланс" style="rounded=0;whiteSpace=wrap;html=1;labelBackgroundColor=default;strokeWidth=1;fontSize=13;fontStyle=1" vertex="1" parent="1">
          <mxGeometry x="550" y="90" width="200" height="60" as="geometry" />
        </mxCell>
        <mxCell id="F8R7WLM5kxrZGCUdwMtY-18" value="" style="edgeStyle=orthogonalEdgeStyle;rounded=0;orthogonalLoop=1;jettySize=auto;html=1;fontSize=13;" edge="1" parent="1" source="F8R7WLM5kxrZGCUdwMtY-17" target="F8R7WLM5kxrZGCUdwMtY-14">
          <mxGeometry relative="1" as="geometry" />
        </mxCell>
        <mxCell id="F8R7WLM5kxrZGCUdwMtY-17" value="Платежный календарь" style="rounded=0;whiteSpace=wrap;html=1;labelBackgroundColor=default;strokeWidth=1;fontSize=13;fontStyle=1" vertex="1" parent="1">
          <mxGeometry x="110" y="180" width="200" height="60" as="geometry" />
        </mxCell>
        <mxCell id="F8R7WLM5kxrZGCUdwMtY-19" value="Финансовая модель" style="rounded=0;whiteSpace=wrap;html=1;labelBackgroundColor=default;strokeWidth=1;fontSize=13;fontStyle=1" vertex="1" parent="1">
          <mxGeometry x="110" y="300" width="640" height="40" as="geometry" />
        </mxCell>
        <mxCell id="F8R7WLM5kxrZGCUdwMtY-22" value="" style="endArrow=classic;html=1;rounded=0;fontSize=13;entryX=0.5;entryY=1;entryDx=0;entryDy=0;exitX=0.5;exitY=0;exitDx=0;exitDy=0;" edge="1" parent="1" source="F8R7WLM5kxrZGCUdwMtY-19" target="F8R7WLM5kxrZGCUdwMtY-15">
          <mxGeometry width="50" height="50" relative="1" as="geometry">
            <mxPoint x="350" y="290" as="sourcePoint" />
            <mxPoint x="400" y="240" as="targetPoint" />
          </mxGeometry>
        </mxCell>
        <mxCell id="F8R7WLM5kxrZGCUdwMtY-23" value="" style="endArrow=classic;html=1;rounded=0;fontSize=13;entryX=0.5;entryY=1;entryDx=0;entryDy=0;exitX=0.5;exitY=0;exitDx=0;exitDy=0;" edge="1" parent="1">
          <mxGeometry width="50" height="50" relative="1" as="geometry">
            <mxPoint x="649.5" y="300" as="sourcePoint" />
            <mxPoint x="649.5" y="150" as="targetPoint" />
          </mxGeometry>
        </mxCell>
        <mxCell id="F8R7WLM5kxrZGCUdwMtY-24" value="&lt;span style=&quot;color: rgb(0, 0, 0); font-family: Helvetica; font-size: 13px; font-style: normal; font-variant-ligatures: normal; font-variant-caps: normal; letter-spacing: normal; orphans: 2; text-indent: 0px; text-transform: none; widows: 2; word-spacing: 0px; -webkit-text-stroke-width: 0px; background-color: rgb(255, 255, 255); text-decoration-thickness: initial; text-decoration-style: initial; text-decoration-color: initial; float: none; display: inline !important;&quot;&gt;Финансовый&amp;nbsp;&lt;b&gt;Учет&lt;/b&gt;&lt;/span&gt;" style="text;whiteSpace=wrap;html=1;fontStyle=0;align=center;fontSize=13;" vertex="1" parent="1">
          <mxGeometry x="295" y="790" width="260" height="40" as="geometry" />
        </mxCell>
        <mxCell id="F8R7WLM5kxrZGCUdwMtY-25" value="Дорожная карта и Панель управления" style="rounded=0;whiteSpace=wrap;html=1;labelBackgroundColor=default;strokeWidth=1;fontSize=17;horizontal=0;fontStyle=1" vertex="1" parent="1">
          <mxGeometry x="10" y="40" width="50" height="800" as="geometry" />
        </mxCell>
        <mxCell id="F8R7WLM5kxrZGCUdwMtY-26" value="Учетная политика" style="rounded=0;whiteSpace=wrap;html=1;labelBackgroundColor=default;strokeWidth=1;fontSize=17;horizontal=0;fontStyle=1" vertex="1" parent="1">
          <mxGeometry x="790" y="40" width="50" height="800" as="geometry" />
        </mxCell>
        <mxCell id="F8R7WLM5kxrZGCUdwMtY-27" value="Отчет ДДС" style="rounded=0;whiteSpace=wrap;html=1;labelBackgroundColor=default;strokeWidth=1;fontSize=13;fontStyle=1" vertex="1" parent="1">
          <mxGeometry x="110" y="430" width="200" height="60" as="geometry" />
        </mxCell>
        <mxCell id="F8R7WLM5kxrZGCUdwMtY-30" value="" style="edgeStyle=orthogonalEdgeStyle;rounded=0;orthogonalLoop=1;jettySize=auto;html=1;fontSize=17;" edge="1" parent="1" source="F8R7WLM5kxrZGCUdwMtY-28" target="F8R7WLM5kxrZGCUdwMtY-19">
          <mxGeometry relative="1" as="geometry" />
        </mxCell>
        <mxCell id="F8R7WLM5kxrZGCUdwMtY-28" value="Отчет ПиУ" style="rounded=0;whiteSpace=wrap;html=1;labelBackgroundColor=default;strokeWidth=1;fontSize=13;fontStyle=1" vertex="1" parent="1">
          <mxGeometry x="330" y="430" width="200" height="60" as="geometry" />
        </mxCell>
        <mxCell id="F8R7WLM5kxrZGCUdwMtY-29" value="Отчет Баланс" style="rounded=0;whiteSpace=wrap;html=1;labelBackgroundColor=default;strokeWidth=1;fontSize=13;fontStyle=1" vertex="1" parent="1">
          <mxGeometry x="555" y="430" width="200" height="60" as="geometry" />
        </mxCell>
        <mxCell id="F8R7WLM5kxrZGCUdwMtY-32" value="" style="edgeStyle=orthogonalEdgeStyle;rounded=0;orthogonalLoop=1;jettySize=auto;html=1;fontSize=17;" edge="1" parent="1">
          <mxGeometry relative="1" as="geometry">
            <mxPoint x="649.5" y="430" as="sourcePoint" />
            <mxPoint x="649.5" y="340" as="targetPoint" />
          </mxGeometry>
        </mxCell>
        <mxCell id="F8R7WLM5kxrZGCUdwMtY-33" value="" style="edgeStyle=orthogonalEdgeStyle;rounded=0;orthogonalLoop=1;jettySize=auto;html=1;fontSize=17;" edge="1" parent="1">
          <mxGeometry relative="1" as="geometry">
            <mxPoint x="200" y="430" as="sourcePoint" />
            <mxPoint x="200" y="340" as="targetPoint" />
          </mxGeometry>
        </mxCell>
      </root>
    </mxGraphModel>
  </diagram>
</mxfile>
